<!DOCTYPE svg PUBLIC "-//W3C//DTD SVG 1.1//EN" "http://www.w3.org/Graphics/SVG/1.1/DTD/svg11.dtd">
<!-- Uploaded to: SVG Repo, www.svgrepo.com, Transformed by: SVG Repo Mixer Tools -->
<svg version="1.1" id="Icons" xmlns="http://www.w3.org/2000/svg" xmlns:xlink="http://www.w3.org/1999/xlink" viewBox="0 0 32 32" xml:space="preserve" width="800px" height="800px" fill="#000000">
<g id="SVGRepo_bgCarrier" stroke-width="0"/>
<g id="SVGRepo_tracerCarrier" stroke-linecap="round" stroke-linejoin="round"/>
<g id="SVGRepo_iconCarrier"> <style type="text/css"> .st0{fill:none;stroke:#00786f;stroke-width:2;stroke-linecap:round;stroke-linejoin:round;stroke-miterlimit:10;} .st1{fill:none;stroke:#00786f;stroke-width:2;stroke-linecap:round;stroke-linejoin:round;stroke-miterlimit:10;stroke-dasharray:3;} .st2{fill:none;stroke:#00786f;stroke-width:2;stroke-linejoin:round;stroke-miterlimit:10;} .st3{fill:none;} </style> <polyline class="st0" points="22,5 22,27 10,27 10,5 "/> <circle class="st0" cx="16" cy="16" r="3"/> <path class="st0" d="M10,23c2.2,0,4,1.8,4,4"/> <path class="st0" d="M18,27c0-2.2,1.8-4,4-4"/> <path class="st0" d="M10,10H5.5C4.1,10,3,8.9,3,7.5v0C3,6.1,4.1,5,5.5,5h21C27.9,5,29,6.1,29,7.5v0c0,1.4-1.1,2.5-2.5,2.5H22"/> <rect x="-504" y="-360" class="st3" width="536" height="680"/> </g>
</svg>